<svg id="svg" version="1.1" xmlns="http://www.w3.org/2000/svg" xmlns:xlink="http://www.w3.org/1999/xlink" width="400" height="400" viewBox="0, 0, 400,400"><g id="svgg"><path id="path0" d="M167.904 94.569 C 163.283 96.218,162.759 97.504,162.355 108.200 C 161.638 127.180,162.399 126.643,136.000 126.769 C 123.624 126.828,121.341 128.377,120.889 137.019 C 120.420 145.988,122.827 148.423,132.920 149.194 C 142.910 149.956,146.667 153.061,147.619 161.343 C 148.126 165.745,148.100 239.798,147.591 243.318 C 146.603 250.153,143.576 252.419,133.926 253.550 C 126.838 254.381,124.992 256.486,123.407 265.544 C 121.319 277.481,122.438 278.293,141.683 278.814 C 161.389 279.348,161.440 279.381,162.082 291.800 C 162.727 304.288,164.994 306.983,174.267 306.283 C 181.648 305.726,183.135 303.611,183.600 293.000 C 183.914 285.842,184.341 283.985,186.119 282.054 C 189.502 278.379,196.265 279.805,198.191 284.600 C 198.368 285.040,198.646 288.460,198.810 292.200 C 199.324 303.954,200.672 305.893,208.624 306.311 C 218.077 306.807,219.864 304.598,220.363 291.800 C 220.827 279.883,222.005 278.526,233.200 277.016 C 241.665 275.874,244.794 275.204,248.567 273.726 C 266.125 266.851,273.544 257.708,277.159 238.490 C 279.297 227.121,279.403 225.290,279.363 200.400 C 279.291 155.945,277.017 147.588,262.356 137.881 C 256.037 133.697,244.982 129.621,237.196 128.602 C 226.137 127.156,224.818 126.798,222.947 124.739 C 220.754 122.326,220.641 121.705,220.390 110.763 C 220.049 95.901,218.870 94.000,209.993 94.000 C 200.539 94.000,199.304 95.793,198.833 110.200 C 198.667 115.260,198.383 119.760,198.201 120.200 C 196.568 124.146,192.131 125.853,188.200 124.048 C 184.427 122.315,183.934 120.767,183.600 109.600 C 183.309 99.865,183.037 98.527,180.895 96.291 C 178.886 94.193,171.645 93.234,167.904 94.569 M211.400 150.405 C 233.086 152.180,243.182 159.567,244.790 174.837 C 245.322 179.893,245.314 221.588,244.780 226.858 C 242.846 245.927,231.872 252.963,203.230 253.498 C 190.845 253.730,189.172 253.502,186.823 251.267 C 183.839 248.429,183.973 250.909,184.093 200.774 L 184.200 156.200 185.108 154.500 C 187.387 150.235,194.938 149.058,211.400 150.405 " stroke="none" fill="#f1f7fa" fill-rule="evenodd"></path><path id="path1" d="M122.700 0.431 C 122.315 0.656,122.000 1.064,122.000 1.338 C 122.000 1.612,120.379 2.530,118.399 3.379 C 116.418 4.227,114.596 5.164,114.350 5.460 C 114.104 5.757,113.681 6.000,113.411 6.000 C 112.857 6.000,95.558 14.636,93.974 15.704 C 93.409 16.084,90.709 17.400,87.974 18.628 C 85.238 19.855,82.856 21.116,82.680 21.430 C 82.504 21.743,82.125 22.000,81.839 22.000 C 81.552 22.000,80.817 22.464,80.205 23.030 C 79.594 23.597,78.670 24.221,78.151 24.418 C 77.633 24.616,76.720 25.457,76.123 26.288 C 75.140 27.657,72.618 29.874,68.200 33.254 C 65.489 35.327,58.843 39.599,58.307 39.613 C 57.529 39.632,56.400 40.618,56.400 41.278 C 56.400 41.983,54.556 43.692,52.836 44.582 C 52.156 44.933,51.600 45.480,51.600 45.796 C 51.600 46.528,49.754 48.428,48.084 49.414 C 47.378 49.831,46.800 50.461,46.800 50.814 C 46.800 51.168,45.630 52.394,44.200 53.540 C 42.770 54.686,41.593 55.933,41.585 56.312 C 41.577 56.690,40.763 57.630,39.776 58.400 C 38.583 59.331,37.855 60.271,37.601 61.206 C 37.391 61.980,36.585 63.285,35.810 64.107 C 35.034 64.929,34.400 65.891,34.400 66.244 C 34.400 66.597,33.529 67.721,32.465 68.743 C 31.400 69.764,30.016 71.320,29.388 72.200 C 28.760 73.080,28.055 73.980,27.823 74.200 C 25.856 76.060,22.674 80.256,22.191 81.625 C 21.864 82.553,21.159 83.717,20.624 84.213 C 20.003 84.788,19.726 85.394,19.856 85.892 C 19.991 86.409,19.176 88.002,17.430 90.631 C 15.953 92.856,14.798 95.032,14.796 95.596 C 14.794 96.148,14.113 97.680,13.283 99.000 C 12.453 100.320,11.176 102.749,10.445 104.397 C 9.714 106.045,8.796 107.845,8.403 108.397 C 7.609 109.514,2.000 121.022,2.000 121.535 C 2.000 121.714,1.550 122.283,1.000 122.800 L 0.000 123.739 0.000 199.908 L 0.000 276.077 0.867 277.294 C 1.344 277.964,2.137 279.341,2.631 280.356 C 6.490 288.290,8.204 291.727,9.338 293.800 C 10.060 295.120,10.899 296.830,11.203 297.600 C 11.507 298.370,12.337 299.900,13.049 301.000 C 13.761 302.100,14.545 303.773,14.792 304.718 C 15.195 306.262,18.770 312.087,19.647 312.629 C 19.841 312.749,20.000 313.486,20.000 314.266 C 20.000 315.274,20.269 315.896,20.929 316.415 C 21.439 316.817,22.076 317.876,22.343 318.768 C 22.610 319.660,23.256 320.851,23.777 321.413 C 24.298 321.976,25.687 323.630,26.862 325.089 C 28.038 326.549,30.233 329.048,31.741 330.644 C 33.248 332.239,34.377 333.713,34.249 333.920 C 34.122 334.126,34.656 334.952,35.436 335.756 C 36.216 336.559,37.129 338.022,37.465 339.008 C 37.800 339.994,38.216 340.800,38.387 340.800 C 38.979 340.800,41.600 343.458,41.600 344.059 C 41.600 344.670,43.196 346.400,43.760 346.400 C 44.278 346.400,46.800 348.943,46.800 349.465 C 46.800 349.733,47.880 350.784,49.200 351.800 C 50.520 352.816,51.600 353.898,51.600 354.205 C 51.600 354.512,52.061 355.086,52.625 355.481 C 54.949 357.111,56.088 358.178,56.412 359.032 C 56.609 359.551,57.660 360.386,58.878 360.993 C 61.930 362.513,68.259 366.855,71.454 369.620 C 72.964 370.928,74.333 371.998,74.495 371.999 C 74.657 371.999,75.241 372.715,75.793 373.589 C 76.344 374.462,77.373 375.476,78.078 375.840 C 78.784 376.205,79.608 376.750,79.909 377.052 C 80.210 377.353,80.610 377.600,80.796 377.600 C 80.982 377.600,81.864 378.301,82.756 379.158 C 83.888 380.246,85.737 381.276,88.889 382.575 C 91.370 383.598,93.670 384.608,94.000 384.819 C 94.330 385.029,95.050 385.390,95.600 385.619 C 96.150 385.849,98.940 387.222,101.800 388.671 C 104.660 390.119,108.378 392.001,110.063 392.852 C 111.747 393.704,113.263 394.400,113.431 394.400 C 113.599 394.400,114.021 394.637,114.369 394.928 C 114.716 395.218,116.530 396.142,118.399 396.980 C 120.268 397.819,122.034 398.841,122.322 399.252 C 123.160 400.449,277.412 400.422,277.792 399.225 C 277.929 398.792,278.693 398.233,279.519 397.961 C 280.334 397.693,286.288 394.802,292.751 391.537 C 299.214 388.271,304.736 385.600,305.022 385.600 C 305.309 385.600,305.781 385.366,306.071 385.080 C 306.362 384.793,308.574 383.768,310.986 382.801 C 314.711 381.308,316.942 379.934,318.800 377.991 C 319.212 377.560,321.437 376.187,322.432 375.749 C 322.999 375.500,323.759 374.674,324.120 373.913 C 324.493 373.125,325.686 371.898,326.888 371.064 C 328.050 370.258,329.990 368.788,331.200 367.798 C 334.481 365.111,340.888 360.893,342.180 360.569 C 342.897 360.389,343.462 359.890,343.719 359.208 C 343.943 358.616,345.178 357.361,346.463 356.420 C 347.882 355.381,348.800 354.412,348.800 353.954 C 348.800 353.539,348.946 353.200,349.125 353.200 C 349.303 353.200,349.798 352.880,350.225 352.489 C 350.651 352.098,351.585 351.366,352.300 350.862 C 353.015 350.358,353.600 349.714,353.600 349.432 C 353.600 348.715,355.607 346.697,356.900 346.114 C 357.493 345.846,358.231 345.021,358.541 344.280 C 358.851 343.539,359.895 342.284,360.862 341.492 C 362.175 340.416,362.744 339.588,363.109 338.225 C 363.377 337.221,363.794 336.400,364.034 336.400 C 364.632 336.400,365.970 334.742,365.987 333.981 C 365.994 333.641,366.739 332.651,367.643 331.781 C 368.547 330.912,370.025 329.210,370.927 328.000 C 372.754 325.551,374.478 323.530,376.036 322.009 C 376.606 321.453,377.307 320.278,377.594 319.399 C 377.880 318.520,378.629 317.209,379.257 316.486 C 379.903 315.744,380.403 314.700,380.407 314.086 C 380.412 313.405,381.300 311.769,382.789 309.699 C 384.224 307.705,385.265 305.806,385.419 304.899 C 385.560 304.075,386.018 302.912,386.437 302.316 C 386.857 301.720,387.200 301.118,387.200 300.978 C 387.200 300.838,387.526 300.246,387.925 299.662 C 388.324 299.078,389.159 297.430,389.780 296.000 C 390.401 294.570,391.425 292.626,392.055 291.680 C 392.685 290.734,393.200 289.855,393.200 289.727 C 393.200 289.598,393.817 288.282,394.572 286.801 C 395.327 285.320,396.423 282.971,397.008 281.580 C 397.594 280.189,398.506 278.483,399.036 277.788 L 400.000 276.524 400.000 199.862 C 400.000 152.692,399.856 123.200,399.627 123.200 C 399.283 123.200,398.352 121.391,394.481 113.200 C 393.701 111.550,392.589 109.480,392.008 108.600 C 391.428 107.720,390.367 105.650,389.652 104.000 C 388.936 102.350,387.752 100.100,387.021 99.000 C 386.289 97.900,385.571 96.318,385.424 95.484 C 385.270 94.605,384.147 92.501,382.757 90.484 C 381.102 88.082,380.408 86.720,380.523 86.100 C 380.614 85.605,380.534 85.200,380.345 85.200 C 380.155 85.200,380.000 85.001,380.000 84.758 C 380.000 84.514,379.550 83.961,379.000 83.529 C 378.450 83.096,378.000 82.383,378.000 81.945 C 378.000 80.964,377.353 79.660,376.340 78.600 C 373.886 76.031,371.828 73.603,370.915 72.200 C 370.342 71.320,369.002 69.806,367.937 68.836 C 366.872 67.865,366.000 66.756,366.000 66.370 C 366.000 65.984,365.364 65.013,364.586 64.212 C 363.808 63.411,363.065 62.224,362.935 61.574 C 362.714 60.469,360.228 57.600,359.491 57.600 C 359.309 57.600,358.897 56.974,358.578 56.208 C 358.258 55.442,357.502 54.509,356.898 54.135 C 355.261 53.120,353.600 51.517,353.600 50.952 C 353.600 50.679,353.015 50.040,352.300 49.534 C 350.208 48.054,348.800 46.704,348.800 46.179 C 348.800 45.911,347.748 44.921,346.463 43.980 C 345.170 43.034,343.935 41.763,343.698 41.135 C 343.463 40.512,342.939 39.898,342.535 39.772 C 340.830 39.238,339.153 38.362,337.461 37.122 C 336.470 36.395,334.521 34.991,333.129 34.002 C 329.570 31.473,324.400 27.134,324.400 26.676 C 324.400 26.125,322.573 24.509,321.600 24.200 C 321.146 24.056,320.338 23.502,319.805 22.969 C 319.272 22.436,318.640 22.000,318.400 22.000 C 318.160 22.000,317.514 21.550,316.964 21.000 C 316.414 20.450,315.785 20.000,315.566 20.000 C 314.956 20.000,308.801 17.161,307.000 16.050 C 306.120 15.506,301.260 13.013,296.200 10.509 C 291.140 8.005,286.730 5.788,286.400 5.582 C 285.458 4.995,280.958 2.909,279.480 2.375 C 278.745 2.109,277.976 1.510,277.771 1.045 L 277.400 0.200 200.400 0.112 C 148.591 0.052,123.171 0.157,122.700 0.431 M177.844 94.591 C 182.460 95.962,183.254 98.031,183.600 109.600 C 183.934 120.767,184.427 122.315,188.200 124.048 C 192.131 125.853,196.568 124.146,198.201 120.200 C 198.383 119.760,198.667 115.260,198.833 110.200 C 199.304 95.793,200.539 94.000,209.993 94.000 C 218.870 94.000,220.049 95.901,220.390 110.763 C 220.751 126.514,220.684 126.443,237.196 128.602 C 244.982 129.621,256.037 133.697,262.356 137.881 C 277.017 147.588,279.291 155.945,279.363 200.400 C 279.403 225.290,279.297 227.121,277.159 238.490 C 273.544 257.708,266.125 266.851,248.567 273.726 C 244.794 275.204,241.665 275.874,233.200 277.016 C 222.005 278.526,220.827 279.883,220.363 291.800 C 219.864 304.598,218.077 306.807,208.624 306.311 C 200.672 305.893,199.324 303.954,198.810 292.200 C 198.646 288.460,198.368 285.040,198.191 284.600 C 196.265 279.805,189.502 278.379,186.119 282.054 C 184.341 283.985,183.914 285.842,183.600 293.000 C 183.135 303.611,181.648 305.726,174.267 306.283 C 164.994 306.983,162.727 304.288,162.082 291.800 C 161.440 279.381,161.389 279.348,141.683 278.814 C 122.438 278.293,121.319 277.481,123.407 265.544 C 124.992 256.486,126.838 254.381,133.926 253.550 C 143.576 252.419,146.603 250.153,147.591 243.318 C 148.100 239.798,148.126 165.745,147.619 161.343 C 146.667 153.061,142.910 149.956,132.920 149.194 C 122.827 148.423,120.420 145.988,120.889 137.019 C 121.341 128.377,123.624 126.828,136.000 126.769 C 162.399 126.643,161.638 127.180,162.355 108.200 C 162.759 97.504,163.283 96.218,167.904 94.569 C 169.917 93.850,175.391 93.862,177.844 94.591 M190.834 150.434 C 188.396 150.913,186.186 152.482,185.108 154.500 L 184.200 156.200 184.093 200.774 C 183.973 250.909,183.839 248.429,186.823 251.267 C 189.172 253.502,190.845 253.730,203.230 253.498 C 231.872 252.963,242.846 245.927,244.780 226.858 C 245.314 221.588,245.322 179.893,244.790 174.837 C 243.367 161.326,236.364 154.874,219.400 151.445 C 212.944 150.140,195.482 149.522,190.834 150.434 " stroke="none" fill="#23a3dc" fill-rule="evenodd"></path></g></svg>